<?xml version="1.0"?><svg width="897" height="1114" xmlns="http://www.w3.org/2000/svg">
 <title>shield</title>
 <g>
  <title>Layer 1</title>
  <path id="svg_1" fill="none" fill-rule="evenodd" stroke="#FEFEFE" stroke-width="1px" d="m460,5l-8,-5l222,0l223,0l0,72l0,72l-1,0l0,0l-1,-1l-1,-1l-1,0q-1,0 -34,-6q-33,-4 -68,-11q-35,-7 -52,-10q-17,-3 -52,-14q-35,-11 -45,-14q-11,-3 -36,-14q-26,-11 -52,-23q-27,-12 -56,-26q-30,-14 -38,-19z"/>
  <path id="svg_2" fill="none" fill-rule="evenodd" stroke="#FEFEFE" stroke-width="1px" d="m0,72l0,-72l223,0l223,0l0,0q0,0 -2,2q-2,1 -26,13q-22,12 -26,13q-3,2 -22,11q-20,9 -51,23q-31,13 -67,26q-36,12 -76,22q-40,10 -70,16q-29,4 -66,11l-38,7l0,0l0,0l-1,0l0,0l-1,1l0,0l0,-73z"/>
  <path id="svg_3" fill="none" fill-rule="evenodd" stroke="#FEFEFE" stroke-width="1px" d="m0,654l0,-460l2,39q2,39 7,119q5,80 7,102q4,23 7,41q3,18 15,64q10,46 20,76q10,30 23,61q13,32 23,54q12,22 30,54q18,31 19,31q1,0 3,5q2,4 9,14q6,10 8,12q3,2 17,24q16,21 26,34q12,12 30,32q18,20 46,46q29,26 33,29q4,3 14,11q9,8 10,9q0,1 11,9q10,8 38,24q27,18 38,22q10,6 24,0q15,-6 46,-26q30,-20 59,-44q29,-26 37,-33q8,-7 9,-8q0,-1 3,-2q2,-1 6,-5q3,-4 6,-6q3,-2 6,-6q4,-4 16,-17q12,-13 13,-14q0,-1 4,-5q3,-3 7,-7q4,-5 5,-5q1,0 6,-6q5,-6 27,-38q24,-33 34,-50q12,-18 16,-26q6,-9 18,-32q12,-22 24,-48q12,-27 25,-60q13,-34 23,-72q10,-38 18,-73q8,-35 12,-63q4,-28 10,-138q6,-111 6,-114q0,-2 0,-4l0,-1l0,-5l0,-4l1,0l0,0l0,460l0,460l-449,0l-448,0l0,-460z"/>
  <path id="svg_4" fill="#000000" fill-rule="evenodd" stroke="#9F1E27" stroke-width="1px" d="m446,0l0,0l3,0l3,0l8,5q8,5 38,19q29,14 56,26q26,12 52,23q25,11 36,14q10,3 45,14q35,11 52,14q17,3 52,10q35,7 68,11q33,6 34,6l1,0l1,1l1,1l0,0l1,0l0,25l0,25l0,0l-1,0l0,4l0,5l0,1q0,2 0,4q0,3 -6,114q-6,110 -10,138q-4,28 -12,63q-8,35 -18,73q-10,38 -23,72q-13,33 -25,60q-12,26 -24,48q-12,23 -18,32q-4,8 -16,26q-10,17 -34,50q-22,32 -27,38q-5,6 -6,6q-1,0 -5,5q-4,4 -7,7q-4,4 -4,5q-1,1 -13,14q-12,13 -16,17q-3,4 -6,6q-3,2 -6,6q-4,4 -6,5q-3,1 -3,2q-1,1 -9,8q-8,7 -37,33q-29,24 -59,44q-31,20 -46,26q-14,6 -24,0q-11,-4 -38,-22q-28,-16 -38,-24q-11,-8 -11,-9q-1,-1 -10,-9q-10,-8 -14,-11q-4,-3 -33,-29q-28,-26 -46,-46q-18,-20 -30,-32q-10,-13 -26,-34q-14,-22 -17,-24q-2,-2 -8,-12q-7,-10 -9,-14q-2,-5 -3,-5q-1,0 -19,-31q-18,-32 -30,-54q-10,-22 -23,-54q-13,-31 -23,-61q-10,-30 -20,-76q-12,-46 -15,-64q-3,-18 -7,-41q-2,-22 -7,-102q-5,-80 -7,-119l-2,-39l0,-24l0,-25l0,0l1,-1l0,0l1,0l0,0l0,0l38,-7q37,-7 66,-11q30,-6 70,-16q40,-10 76,-22q36,-13 67,-26q31,-14 51,-23q19,-9 22,-11q4,-1 26,-13q24,-12 26,-13q2,-2 2,-2z"/>
 </g>
</svg>